<svg id="Layer_1" data-name="Layer 1" xmlns="http://www.w3.org/2000/svg" viewBox="0 0 255.02 157.5">
  <defs>
    <style>
      .cls-1,.cls-2{fill:#f97316;}.cls-2,.cls-3,.cls-4{fill-rule:evenodd;}.cls-3{fill:#3b82f6;}.cls-4{fill:#0ea5e9;}.cls-5{fill:#2563eb;}
    </style>
  </defs>
  <path class="cls-1" d="M559.15,447l-8.59,34.17h-5.11l-7-28.37-6.79,28.37h-5L518,447h4.66l6.89,28.41L536.33,447H541l6.91,28.68L554.69,447Z" transform="translate(-450 -409.52)"/>
  <path class="cls-1" d="M558.44,481.12,570,447h5.59l11.53,34.17h-4.8l-3.1-9.55H566.12L563,481.12Zm19.48-13.43-5.28-16.11-5.26,16.11Z" transform="translate(-450 -409.52)"/>
  <path class="cls-1" d="M616.77,481.12h-5.9L600,467.53h-5.18v13.59h-4.55V447h8.81a31,31,0,0,1,4.93.32,9.58,9.58,0,0,1,3.77,1.49,8.47,8.47,0,0,1,2.84,3,9,9,0,0,1,1,4.5,10.16,10.16,0,0,1-1.91,6.29,11.11,11.11,0,0,1-5.18,3.74ZM607,456.56a6.36,6.36,0,0,0-.53-2.65,4.43,4.43,0,0,0-1.63-1.89,6.3,6.3,0,0,0-2.25-.91,16.66,16.66,0,0,0-3.19-.26h-4.49v12.89h4a16.33,16.33,0,0,0,3.51-.34A5.35,5.35,0,0,0,605,462a5.91,5.91,0,0,0,1.46-2.3A9.44,9.44,0,0,0,607,456.56Z" transform="translate(-450 -409.52)"/>
  <path class="cls-1" d="M615.79,481.12,627.31,447h5.6l11.52,34.17h-4.8l-3.1-9.55H623.47l-3.09,9.55Zm19.48-13.43L630,451.58l-5.25,16.11Z" transform="translate(-450 -409.52)"/>
  <path class="cls-1" d="M670.84,470.63a10.06,10.06,0,0,1-1,4.5,9.12,9.12,0,0,1-2.6,3.21,11.94,11.94,0,0,1-4.13,2.15,21.19,21.19,0,0,1-5.69.63h-9.8V447h9.07a45.71,45.71,0,0,1,5.47.24,10.33,10.33,0,0,1,3.5,1.13,6.31,6.31,0,0,1,2.68,2.58,7.87,7.87,0,0,1,.85,3.76A7.58,7.58,0,0,1,668,459a8.52,8.52,0,0,1-3.52,3v.19a8.58,8.58,0,0,1,4.73,3A8.77,8.77,0,0,1,670.84,470.63Zm-6.33-15.33a5.09,5.09,0,0,0-.42-2.15,3.11,3.11,0,0,0-1.33-1.43,6.23,6.23,0,0,0-2.45-.76c-.91-.09-2.15-.14-3.74-.14h-4.36v10h5.16a15.88,15.88,0,0,0,3.14-.22,6.45,6.45,0,0,0,2.09-.9,3.72,3.72,0,0,0,1.47-1.75A7.15,7.15,0,0,0,664.51,455.3Zm1.6,15.51a7.92,7.92,0,0,0-.55-3.18,4.59,4.59,0,0,0-2.22-2.12,6.71,6.71,0,0,0-2.36-.73,30.17,30.17,0,0,0-3.61-.16h-5.16v12.62h3.69a30.49,30.49,0,0,0,4.71-.28,7.24,7.24,0,0,0,3-1.17,5.74,5.74,0,0,0,1.89-2A6.45,6.45,0,0,0,666.11,470.81Z" transform="translate(-450 -409.52)"/>
  <path class="cls-1" d="M671.67,481.12,683.19,447h5.6l11.52,34.17h-4.8l-3.1-9.55H679.35l-3.09,9.55Zm19.48-13.43-5.28-16.11-5.25,16.11Z" transform="translate(-450 -409.52)"/>
  <path class="cls-2" d="M542.88,434.52c-4-6.41-8.94-9.29-14.52-9.9a77.84,77.84,0,0,1,14.52,9.9ZM472.6,445.68a54.58,54.58,0,0,1-12.41,2.94V567c23.5-1.92,70.24-32.87,81.69-15.91-11.06-18.53-44.51-33.6-69.28-34Z" transform="translate(-450 -409.52)"/>
  <path class="cls-3" d="M542.88,434.52c-6.42-10.38-15.78-14.34-26.61-15.13a80.86,80.86,0,0,1,26.61,15.13ZM472.6,425a128.15,128.15,0,0,1-22.6,2.57V546c24.71.48,79.08-13.79,91.7,4.84-11.25-18.39-44.46-33.31-69.1-33.74Z" transform="translate(-450 -409.52)"/>
  <path class="cls-4" d="M542.88,434.52c-20-24.65-46.56-25-78.62-25v118.4c23.07.46,60.43,2.71,74.8,19.13-13.16-16.61-43.52-29.57-66.46-30V414.22c15.56-1,46-.56,70.28,20.3Z" transform="translate(-450 -409.52)"/>
  <path class="cls-5" d="M521.7,509.1l-3.13,9.45h-4l10.21-30.06h4.69l10.26,30.06h-4.15l-3.21-9.45Zm9.85-3-2.94-8.65c-.67-2-1.12-3.75-1.56-5.48H527c-.45,1.78-.94,3.61-1.52,5.44l-2.94,8.69Z" transform="translate(-450 -409.52)"/>
  <path class="cls-5" d="M564.47,517.57a19.15,19.15,0,0,1-7.94,1.43c-8.47,0-14.85-5.35-14.85-15.21,0-9.41,6.38-15.79,15.7-15.79a16.06,16.06,0,0,1,7.14,1.34l-.94,3.17a14,14,0,0,0-6.07-1.25c-7,0-11.73,4.5-11.73,12.4,0,7.36,4.24,12.08,11.55,12.08a15.51,15.51,0,0,0,6.34-1.25Z" transform="translate(-450 -409.52)"/>
  <path class="cls-5" d="M574.37,509.1l-3.12,9.45h-4l10.21-30.06h4.68l10.26,30.06h-4.15L585,509.1Zm9.86-3-2.94-8.65c-.67-2-1.12-3.75-1.56-5.48h-.09c-.45,1.78-.94,3.61-1.52,5.44l-2.94,8.69Z" transform="translate(-450 -409.52)"/>
  <path class="cls-5" d="M596.81,488.89a56.47,56.47,0,0,1,8.25-.62c5.58,0,9.55,1.29,12.18,3.74s4.23,5.94,4.23,10.8-1.51,8.92-4.32,11.68-7.45,4.33-13.29,4.33a60.9,60.9,0,0,1-7.05-.36Zm3.88,26.59a25.55,25.55,0,0,0,3.92.22c8.3,0,12.81-4.64,12.81-12.76,0-7.09-4-11.59-12.18-11.59a21.6,21.6,0,0,0-4.55.4Z" transform="translate(-450 -409.52)"/>
  <path class="cls-5" d="M642.08,504.46H630.4V515.3h13v3.25h-16.9V488.49h16.23v3.26H630.4v9.5h11.68Z" transform="translate(-450 -409.52)"/>
  <path class="cls-5" d="M673.8,505.35c-.23-4.19-.5-9.23-.45-13h-.13c-1,3.52-2.28,7.27-3.8,11.42l-5.3,14.59h-3l-4.86-14.32c-1.43-4.24-2.63-8.12-3.48-11.69h-.09c-.09,3.75-.31,8.79-.58,13.29l-.8,12.89h-3.7l2.09-30.06h5L659.83,503c1.25,3.7,2.28,7,3,10.13H663c.76-3,1.83-6.34,3.17-10.13l5.35-14.54h5l1.88,30.06h-3.8Z" transform="translate(-450 -409.52)"/>
  <path class="cls-5" d="M691,518.55V505.8l-9.5-17.31h4.42l4.23,8.3c1.16,2.27,2.06,4.1,3,6.2h.09c.85-2,1.88-3.93,3-6.2l4.32-8.3H705l-10.08,17.26v12.8Z" transform="translate(-450 -409.52)"/>
</svg>