<svg xmlns="http://www.w3.org/2000/svg" viewBox="0 0 512 512">
  <defs>
    <linearGradient id="orangeG" x1="0%" y1="0%" x2="100%" y2="100%">
      <stop offset="0%" stop-color="#f97316"/>
      <stop offset="100%" stop-color="#ea580c"/>
    </linearGradient>
    <linearGradient id="blueG" x1="0%" y1="0%" x2="100%" y2="100%">
      <stop offset="0%" stop-color="#3b82f6"/>
      <stop offset="100%" stop-color="#1d4ed8"/>
    </linearGradient>
    <linearGradient id="cyanG" x1="0%" y1="0%" x2="100%" y2="100%">
      <stop offset="0%" stop-color="#38bdf8"/>
      <stop offset="100%" stop-color="#0ea5e9"/>
    </linearGradient>
  </defs>

  <!-- Fond blanc arrondi -->
  <rect width="512" height="512" rx="80" fill="white"/>

  <!-- Mark Waraba Academy — paths Canva originaux, mis à l'échelle 512×512 -->
  <!-- scale(3.04) + translate pour centrer le mark (93×158px natif) -->
  <g transform="translate(115,16) scale(3.04)">

    <!-- Couche orange (extérieur, fill-rule evenodd) -->
    <path
      fill="url(#orangeG)"
      fill-rule="evenodd"
      d="M542.88,434.52c-4-6.41-8.94-9.29-14.52-9.9a77.84,77.84,0,0,1,14.52,9.9Z
         M472.6,445.68a54.58,54.58,0,0,1-12.41,2.94V567
         c23.5-1.92,70.24-32.87,81.69-15.91
         -11.06-18.53-44.51-33.6-69.28-34Z"
      transform="translate(-450 -409.52)"/>

    <!-- Couche bleue (milieu) -->
    <path
      fill="url(#blueG)"
      fill-rule="evenodd"
      d="M542.88,434.52c-6.42-10.38-15.78-14.34-26.61-15.13
         a80.86,80.86,0,0,1,26.61,15.13Z
         M472.6,425a128.15,128.15,0,0,1-22.6,2.57V546
         c24.71.48,79.08-13.79,91.7,4.84
         -11.25-18.39-44.46-33.31-69.1-33.74Z"
      transform="translate(-450 -409.52)"/>

    <!-- Couche cyan (avant) -->
    <path
      fill="url(#cyanG)"
      fill-rule="evenodd"
      d="M542.88,434.52c-20-24.65-46.56-25-78.62-25
         v118.4c23.07.46,60.43,2.71,74.8,19.13
         -13.16-16.61-43.52-29.57-66.46-30
         V414.22c15.56-1,46-.56,70.28,20.3Z"
      transform="translate(-450 -409.52)"/>

  </g>
</svg>
